<svg width="72" height="47" viewBox="0 0 72 47" fill="none" xmlns="http://www.w3.org/2000/svg">
<path d="M56.0288 7.50034C58.3965 2.83941 61.8625 4.34838 64.6018 5.80502C66.9319 7.04407 68.6373 9.45789 71.471 12.1661C69.6194 12.1661 69.0244 12.3233 68.5621 12.142C63.5255 10.1669 62.6249 11.2464 61.349 16.2908C59.2994 24.394 56.3811 32.2891 53.5335 40.1651C53.1446 41.2406 51.0466 42.2475 49.7475 42.238C48.9719 42.2324 47.8629 40.2822 47.5161 39.0358C46.7847 36.4076 46.456 33.6674 44.7513 30.7825C43.4083 34.5496 42.1051 38.3316 40.7129 42.0804C38.6907 47.526 35.7666 48.1635 31.5025 44.2032C23.3888 36.6678 19.7393 26.6044 16.6562 16.5029C13.9573 7.66039 13.9573 7.1457 5.02175 9.59963C3.81649 9.93063 2.56807 10.1045 0 10.6201C4.05924 4.41555 9.28763 2.06563 14.7518 0.734405C23.5642 -1.41251 25.7665 0.964148 26.5699 10.302C27.0739 16.1589 28.4436 22.0266 30.1525 27.6691C31.6588 32.6428 35.382 33.011 38.5427 28.824C40.2308 26.5877 41.4651 24.0131 42.9753 21.6363C43.8025 20.3343 44.7775 19.1263 46.382 16.9178C47.9331 22.165 49.1401 26.2483 50.3471 30.3317C56.0178 23.3363 54.8687 15.3893 56.0288 7.50034Z" fill="rgb(15,99,109)"/>
</svg>
